<?xml version="1.0" encoding="utf-8"?>
<!-- Generator: Adobe Illustrator 26.0.3, SVG Export Plug-In . SVG Version: 6.00 Build 0)  -->
<svg version="1.1" id="Layer_1" xmlns="http://www.w3.org/2000/svg" xmlns:xlink="http://www.w3.org/1999/xlink" x="0px" y="0px"
	 viewBox="0 0 85.46 53.21" style="enable-background:new 0 0 85.46 53.21;" xml:space="preserve">
<style type="text/css">
	.st0{fill:none;stroke:#231F20;stroke-width:4;stroke-miterlimit:10;}
	.st1{fill:#0A2020;}
	.st2{fill:none;stroke:#231F20;stroke-width:4;stroke-linecap:round;stroke-miterlimit:10;}
</style>
<g>
	<path class="st0" d="M203.15-81.07h-67.43c-1.15,0-2.07-0.93-2.07-2.07v-42.21c0-1.15,0.93-2.07,2.07-2.07h67.43
		c1.15,0,2.07,0.93,2.07,2.07v42.21C205.22-82,204.3-81.07,203.15-81.07z"/>
	<polyline class="st0" points="133.64,-90.73 144.99,-106.16 152.6,-97.6 162,-112.28 181.52,-81.07 	"/>
	<circle class="st0" cx="186.12" cy="-110.25" r="6"/>
</g>
<g>
	<path class="st1" d="M3.06,29.4c1.92-1.34,3.77-2.74,5.8-4c0.68-0.42,1.82-0.54,2.78-0.67c0.25-0.03,1.4-0.01,0.92,0.63
		c-0.79,1.08,0.8,1.72,1.06,2.61c0.1,0.34,1.49,0.62,2.34,0.72c1.02,0.12,2.1,0.06,3.13-0.02c0.55-0.05,1.18-0.23,1.56-0.5
		c3.08-2.13,6.09-4.31,9.16-6.45c0.52-0.36,1.2-0.76,1.87-0.84c0.67-0.08,1.73-0.12,2.17,0.35s-0.25,0.86-0.53,1.23
		c-1.01,1.32-2.09,2.62-3.28,4.1c0.79,0,1.44-0.11,1.92,0.03c0.57,0.17,1.34,0.53,1.41,0.87c0.17,0.83,0.86,1.11,1.83,1
		c1.63-0.19,3.31-0.39,4.81-0.84c1.88-0.57,3.01-0.54,4.38,0.53c0.17,0.13,0.42,0.28,0.65,0.3c3.08,0.33,6.15,0.7,9.24,0.92
		c2.66,0.19,4.88-0.57,6.9-1.76c0.77-0.45,1.95-0.67,2.99-0.78c1.29-0.13,2.04,0.33,1.83,1.14c1.16,0.4,2.23,0.76,3.54,1.21
		c0.79-0.18,1.98-0.49,3.21-0.73c3.3-0.66,5.79,0.51,8.16,1.81c0.36,0.2,0.44,0.64,0.65,0.98c-0.55,0.15-1.1,0.46-1.63,0.44
		c-1.78-0.08-3.55-0.31-5.34-0.41c-0.76-0.04-1.59,0.03-2.31,0.2c-0.95,0.22-1.78,0.72-2.73,0.87c-0.99,0.16-2.36,0.32-3.07-0.01
		c-1.62-0.77-3.3-0.84-5.1-0.78c-0.38,0.01-0.8,0.01-1.12,0.12c-1.97,0.67-3.99,0.59-6.09,0.38c-1.43-0.14-2.9-0.05-4.35-0.12
		c-1.06-0.05-2.12-0.21-3.58-0.36c-1.3,0.58-2.73,0.59-4.39-0.47c-1.01-0.64-1.81-0.48-2.96-0.37c-2.3,0.22-4.81,0.6-6.93,0.18
		c-2.14-0.42-4.1-0.87-6.4-0.94c-1.49-0.05-2.35,0.15-3.24,0.77c-1.07,0.75-2.23,0.78-3.7,0.52c-1.03-0.18-2.3-0.08-3.34,0.16
		c-1.41,0.32-2.52,0.38-3.69-0.38c-0.95-0.62-2.09-1.13-3.22-1.6c-0.25-0.1-0.91,0.12-1.27,0.31c-1.37,0.71-2.7,1.47-4.04,2.21
		C1.45,32.52,1.48,31.01,3.06,29.4z"/>
	<path class="st1" d="M85.46,10.27c0,1.23-0.99,2.22-2.21,2.24c-0.55,0.01-1.1,0.01-1.65-0.02c-0.58-0.03-1.56-0.11-1.69-0.58
		s0.56-0.77,0.98-1.06c0.81-0.56,1.72-1.06,2.58-1.59c0.52-0.35,0.16-0.77-0.41-0.42c-1.15,0.5-2.38,0.94-3.43,1.52
		c-1.52,0.85-2.89,1.83-4.36,2.72c-1.49,0.91-2.57,0.55-4.18-0.21c-1.26-0.59-3.29-0.78-4.86-0.62c-2.13,0.21-2.92,0.1-3.08-1.22
		c-0.03-0.27-0.32-0.45-0.58-0.35c-1,0.38-1.93,0.75-2.9,1.06c-0.69,0.22-1.59,0.57-2.16,0.43c-1.46-0.36-2.58,0.14-3.85,0.36
		c-2.06,0.35-4.15,0.7-6.25,0.82c-2.7,0.16-3.36-0.07-2.92-1.35c0.11-0.33-0.19-0.65-0.52-0.54c-1.98,0.62-3.95,1.25-5.94,1.85
		c-1.07,0.32-2.11,0.39-3.18-0.14c-0.33-0.17-1.08-0.01-1.6,0.08c-1.22,0.22-2.51,0.82-3.6,0.67c-1.88-0.25-3.62-0.97-5.44-1.46
		c-0.38-0.1-0.86-0.21-1.21-0.14c-1.65,0.35-3.28,0.74-4.89,1.16c-2.01,0.53-3.93,0.68-5.62-0.47c-1.67-1.13-1.41-2.43-0.59-3.74
		c0.46-0.73,1.05-1.43,1.4-2.27c-1.71,1.25-3.48,2.48-5.12,3.77c-1.59,1.25-3.08,2.55-4.56,3.85c-1.19,1.05-1.77,1.67-2.83,1.32
		c-0.93-0.31-1.07-1.59-0.27-2.16c1.05-0.75,2.09-1.5,3.2-2.2C9.57,7.93,15.45,4.3,21.36,0.69c0.58-0.35,1.44-0.65,2.19-0.68
		c1.36-0.06,1.78,0.55,0.97,1.33c-1.3,1.25-2.81,2.42-3.98,3.72c-1.08,1.2-1.88,2.51-2.69,3.81c-0.28,0.46-0.2,1.02-0.28,1.53
		c0.16,0.09,0.31,0.18,0.47,0.27c1.24-0.52,2.52-1,3.71-1.57c2.41-1.16,2.45-1.12,4.84,0.15c0.79,0.42,2.04,0.5,1.95,1.29
		c-0.03,0.24,0.21,0.43,0.46,0.42c2.23-0.1,4.39,0.22,6.4-0.72c0.62-0.29,2.06,0.25,3.13,0.41c0.06,0.18,0.11,0.35,0.17,0.53
		c3.07-1.47,6.13-2.94,9.21-4.39c0.63-0.3,1.31-0.66,2.02-0.73c0.7-0.07,1.62,0.06,2.16,0.35c0.25,0.13-0.05,0.89-0.32,1.3
		c-0.63,0.96-1.34,1.89-2.1,2.92c-0.22,0.29,0.01,0.71,0.37,0.67c2.52-0.27,4.54-0.98,6.33-2c1.2-0.68,2.31-1.04,3.79-0.45
		c0.29,0.12,0.84,0.02,1.23-0.06c0.91-0.2,1.78-0.46,2.68-0.68c0.37-0.09,0.77-0.25,1.12-0.22c2.46,0.19,4.94,0.35,7.37,0.68
		C73.34,8.67,74,9.17,75,9.84c0.16,0.11,0.39,0.1,0.54-0.04c0.61-0.57,1.15-1.2,1.93-1.63c1.52-0.82,3.16-1.59,4.91-2.16L82.4,6
		c1.52-0.48,3.06,0.65,3.06,2.24L85.46,10.27z"/>
	<path class="st1" d="M5.49,43.06c2.12-1.46,2.03,1.25,1.35,1.93c-0.16,0.16-1.41,1.27-1.27,1.45c0.12,0.15,3.03-1.12,3.63-0.58
		c0.24,0.22,0.58,0.3,0.9,0.32c1.51,0.09,2.88,0.1,4.14,0.37c2.12,0.47,3.7,0.25,5.13-0.95c0.88-0.74,1.95-1.41,3.11-1.93
		c0.54-0.24,1.22-0.34,1.89-0.43c0.61-0.08,1.19,0.26,1.42,0.82c0.1,0.25,0.18,0.51,0.2,0.76c0,0.01,0,0.01,0,0.02
		c0.04,0.88,0.78,1.55,1.63,1.34c0.35-0.09,0.7-0.16,1.06-0.19c0.89-0.08,1.61,0.08,1.78,0.55c0.18,0.53,0.6,0.95,1.16,1
		c1.82,0.17,3.54,0.17,5.26-0.32c1.55-0.45,2.27-0.41,3.03,0.3c0.34,0.32,0.82,0.47,1.27,0.35c1.46-0.39,2.93-0.67,4.45,0.15
		c0.19,0.1,0.72-0.1,1.1-0.14c1.19-0.13,2.37-0.23,3.31,0.22c0.36,0.17,0.78,0.17,1.14,0c2.99-1.45,5.91-2.91,8.92-4.27
		c0.65-0.3,1.73-0.35,2.54-0.24c1.43,0.18,1.69,0.76,0.82,1.57c-1.93,1.8-3.91,3.57-5.85,5.36c-0.25,0.23-0.67,0.62-0.55,0.77
		c0.53,0.7,0.24,1.11-0.75,1.35c-1.45,0.35-2.94,1.01-4.43,0.19c-0.1-0.06-0.16-0.14-0.21-0.25c-0.21-0.52-0.63-0.93-1.19-0.93
		c-3.09-0.05-6.14-0.87-9.29-1.38c-0.49-0.08-1.08,0.07-1.62,0.15c-1.62,0.24-2.27,0.15-2.8-0.46c-0.24-0.28-0.58-0.47-0.95-0.49
		c-2.18-0.14-4.26-0.31-6.33-0.38c-0.89-0.03-1.79,0.2-2.69,0.34c-1.95,0.29-3.89,0.65-5.86,0.85c-0.52,0.05-1.27-0.31-1.64-0.62
		c-0.14-0.12,0.4-0.68,0.73-1c0.44-0.42,0.98-0.8,1.23-1.36c-0.98,0.64-1.96,1.29-2.95,1.93c-1.57,1-2.81,0.99-4.14-0.13
		c-0.84-0.71-1.48-0.58-2.54-0.2c-1.03,0.37-2.54,0.75-3.44,0.48c-1.02-0.3-2.85-0.26-4.45-0.1C2.73,49.35,2,48.33,2.4,47.4
		C3.23,45.47,3.73,44.37,5.49,43.06z"/>
	<path class="st1" d="M72.76,49.4c-3.49,0.65-3.92,0.59-5.16-0.64c-0.79,0.41-1.56,0.83-2.35,1.23c-0.96,0.49-2.02,0.44-2.68-0.16
		c-0.26-0.23,0.16-0.93,0.5-1.33c1.12-1.35,3.18-1.91,5.07-2.49c1.74-0.53,3.42-0.15,4.68,1.05c0.87-0.36,1.68-0.76,2.58-1.04
		c0.68-0.21,1.48-0.38,2.21-0.35c1.39,0.05,1.89,0.59,1.16,1.5c2.47,0.14,2.73,0.36,2.87,2.21c1,0.32,1.97,0.58,2.85,0.93
		c1.04,0.42,0.99,1.11-0.14,1.18c-2.08,0.14-4.33,0.74-6.27-0.43c-0.61-0.37-1.2-0.58-2.19-0.17C74.05,51.65,72.73,50.99,72.76,49.4
		z"/>
</g>
<g>
	<g>
		<path class="st0" d="M411.83-71.42l-42.02,9.31c-0.71,0.16-1.42-0.29-1.58-1.01l-5.83-26.3c-0.16-0.71,0.29-1.42,1.01-1.58
			l42.02-9.31c0.71-0.16,1.42,0.29,1.58,1.01l5.83,26.3C412.99-72.28,412.54-71.57,411.83-71.42z"/>
		<path class="st0" d="M362.51-90.26l23.31,12.05c2.06,0.76,4.38,0.22,5.89-1.39l14.84-20.43"/>
		<line class="st0" x1="413.07" y1="-71.69" x2="393.36" y2="-82.47"/>
		<line class="st0" x1="368.52" y1="-61.82" x2="381.84" y2="-79.92"/>
	</g>
	<g>
		<line class="st2" x1="352.63" y1="-64.65" x2="359.95" y2="-66.27"/>
		<line class="st2" x1="345.09" y1="-72.13" x2="358.02" y2="-75"/>
		<line class="st2" x1="336.3" y1="-79.33" x2="356.08" y2="-83.72"/>
	</g>
</g>
</svg>
